<?xml version="1.0" encoding="UTF-8" standalone="no"?>
<!-- Created with Inkscape (http://www.inkscape.org/) -->

<svg
   width="512"
   height="512"
   viewBox="0 0 135.46666 135.46667"
   version="1.1"
   id="svg5"
   inkscape:version="1.1.1 (3bf5ae0d25, 2021-09-20)"
   sodipodi:docname="logo idea.svg"
   inkscape:export-filename="C:\Users\ldelbin\Desktop\black.png"
   inkscape:export-xdpi="96"
   inkscape:export-ydpi="96"
   xmlns:inkscape="http://www.inkscape.org/namespaces/inkscape"
   xmlns:sodipodi="http://sodipodi.sourceforge.net/DTD/sodipodi-0.dtd"
   xmlns="http://www.w3.org/2000/svg"
   xmlns:svg="http://www.w3.org/2000/svg">
  <sodipodi:namedview
     id="namedview7"
     pagecolor="#ffffff"
     bordercolor="#666666"
     borderopacity="1.0"
     inkscape:pageshadow="2"
     inkscape:pageopacity="0.0"
     inkscape:pagecheckerboard="0"
     inkscape:document-units="mm"
     showgrid="false"
     inkscape:zoom="0.90583672"
     inkscape:cx="-48.0219"
     inkscape:cy="80.036499"
     inkscape:window-width="1920"
     inkscape:window-height="1137"
     inkscape:window-x="-8"
     inkscape:window-y="3"
     inkscape:window-maximized="1"
     inkscape:current-layer="layer1"
     fit-margin-top="0"
     fit-margin-left="0"
     fit-margin-right="0"
     fit-margin-bottom="0"
     units="px"
     width="512px" />
  <defs
     id="defs2" />
  <g
     inkscape:label="Layer 1"
     inkscape:groupmode="layer"
     id="layer1"
     transform="translate(-39.619602,-60.873491)">
    <path
       style="fill:#000000;stroke-width:7.68976;stroke-linejoin:round;stroke-dashoffset:0.3"
       id="path1787"
       d="m 84.526515,68.315815 c 21.484545,26.896558 25.516705,34.007695 45.028315,59.090905 4.04756,5.20045 8.05609,10.40916 12.36674,15.39363 5.07784,2.60359 10.6593,5.02672 11.67714,-7.93883 -0.6436,-10.16473 -1.47536,-21.2834 -1.95548,-30.40839 -0.25752,-4.19075 -0.40922,-8.387258 -0.65191,-12.578795 -0.0838,-1.444772 -0.0882,-2.898675 -0.2881,-4.331995 -0.21748,-1.560316 -0.83339,-4.111495 -2.19657,-3.438186 -4.32824,2.137778 -8.1834,5.123883 -12.27508,7.685822 -6.08186,7.948655 -11.94974,16.058024 -17.70377,24.246574 -5.29217,7.5313 -9.50708,13.51174 -14.26432,21.42398 -2.38907,3.9735 -4.572377,8.06728 -6.858555,12.1009 -6.133173,10.84013 -11.607916,22.02715 -17.194138,33.15216 -1.30123,2.59142 -2.423607,5.2837 -3.933785,7.75907 -0.911073,1.49336 -4.994617,4.48839 -3.29273,4.08613 2.728473,-0.64495 4.548598,-3.28035 6.822898,-4.92054 -0.582299,-0.51028 -1.341994,-0.87071 -1.74691,-1.53073 -1.825452,-2.97552 -3.216479,-8.37207 -3.957214,-11.4716 -2.030532,-8.49657 -3.138273,-17.17195 -4.252016,-25.82167 -0.70461,-7.33396 -0.85269,-8.19917 -1.295557,-15.1904 -0.112554,-1.77693 -0.32142,-3.55456 -0.274408,-5.33444 0.02714,-1.0311 1.465692,-3.40446 0.495934,-3.05434 -11.794724,4.25843 -9.446337,4.58179 -5.022241,7.92754 1.420058,1.6475 2.909765,3.23738 4.260161,4.94247 3.286892,4.15026 8.793163,12.04694 11.563508,16.12365 9.701564,14.59301 22.485103,28.18374 36.382543,37.11985 -7.41449,-13.91483 -20.294115,-28.0879 -28.742919,-41.59229 -4.659627,-7.44177 -5.972261,-9.86126 -10.595304,-16.78075 -1.223451,-1.83118 -2.516333,-3.61499 -3.774497,-5.42249 -4.99848,-5.69705 -3.317045,-5.91967 -13.844635,2.58217 -0.761936,0.61534 0.0056,1.96193 0.09537,2.93743 0.159164,1.72177 0.441134,3.42997 0.651981,5.14616 0.278272,2.26511 0.540903,4.53211 0.815405,6.79768 0.329436,2.71897 0.664258,5.43728 0.996384,8.15592 1.098726,8.7456 2.193454,17.49246 3.872386,26.15118 0.456137,2.35245 1.956422,9.93598 3.270332,12.51927 0.510988,1.00467 1.519503,1.66486 2.279255,2.4973 3.861545,-1.98028 8.033312,-3.4462 11.584652,-5.9408 1.239856,-0.87093 1.69885,-2.51942 2.38381,-3.87134 1.239936,-2.44722 2.234261,-5.01157 3.379899,-7.50442 5.10664,-11.11175 10.484178,-22.10097 16.481411,-32.76424 2.36023,-4.05131 4.62777,-8.15809 7.08065,-12.15391 4.3626,-7.1068 9.56901,-14.68082 14.44666,-21.45166 4.17344,-5.79331 9.72931,-13.212462 14.36331,-18.768237 1.76882,-2.12066 3.67404,-4.123616 5.51107,-6.185425 -2.34732,0.954169 -4.72904,1.827625 -7.04193,2.862488 -0.36312,0.162475 0.87282,-0.499744 1.16997,-0.235204 0.58091,0.517226 0.77239,1.372894 0.95674,2.128724 0.33131,1.358309 0.40887,2.766604 0.57587,4.154752 0.50777,4.220802 0.81042,8.009882 1.19353,12.276142 0.46046,7.01101 0.66234,9.30601 0.91556,16.42917 0.093,2.61741 0.21801,5.23611 0.18724,7.855 -0.0254,2.15477 -2.30629,5.54146 -0.35548,6.45492 11.66696,-2.00477 4.42433,-3.33982 3.78151,-5.25414 -2.76243,-2.76559 -7.91137,-8.8995 -10.18259,-11.66017 -6.62034,-8.04705 -12.92872,-16.34514 -19.03813,-24.785661 -8.80532,-12.68731 -12.61319,-18.356275 -21.574024,-37.052657 l -11.571077,7.000313 z"
       sodipodi:nodetypes="ccccccsscsscssscsscscscscccscscsscsscssscssscsssscssccscccc"
       inkscape:export-filename="C:\Users\ldelbin\Desktop\path1787.png"
       inkscape:export-xdpi="96"
       inkscape:export-ydpi="96" />
  </g>
</svg>
